<svg xmlns="http://www.w3.org/2000/svg" xmlns:xlink="http://www.w3.org/1999/xlink" width="863.568" height="659" viewBox="0 0 863.568 659"><defs><style>.a,.g{fill:#a1f751;}.a,.c,.k{opacity:0.1;}.b{fill:#5f5d7e;}.d{fill:#474157;}.e{fill:#ededf4;}.f{fill:#e6e8ec;}.h{fill:url(#a);}.i{fill:#fdc2cc;}.j{opacity:0.3;}.l{fill:#ffd037;}.m{fill:#65617d;}.n{fill:#9d9cb5;}</style><linearGradient id="a" x1="0.5" y1="1" x2="0.5" gradientUnits="objectBoundingBox"><stop offset="0" stop-color="gray" stop-opacity="0.251"/><stop offset="0.54" stop-color="gray" stop-opacity="0.122"/><stop offset="1" stop-color="gray" stop-opacity="0.102"/></linearGradient></defs><g transform="translate(0 -34.9)"><circle class="a" cx="27.23" cy="27.23" r="27.23" transform="translate(123.251 89.359)"/><circle class="a" cx="16.856" cy="16.856" r="16.856" transform="translate(76.58 34.9)"/><circle class="a" cx="10.373" cy="10.373" r="10.373" transform="translate(789.72 93.249)"/><ellipse class="a" cx="72.82" cy="7.261" rx="72.82" ry="7.261" transform="translate(523.569 679.378)"/><path class="b" d="M198.274,487.31l-.32,17.245L195.4,644.343l-21.9,51.3L98,696.5V495.254l78.784-6.241Z" transform="translate(-13.286 -61.332)"/><path class="c" d="M198.274,487.31l-.32,17.245L195.4,644.343l-21.9,51.3L98,696.5V495.254l78.784-6.241Z" transform="translate(-13.286 -61.332)"/><path class="b" d="M210.113,487.31l-.32,17.245-2.559,139.787-21.9,51.3L191.1,504.884l-.017-.121-2.455-15.75Z" transform="translate(-25.125 -61.332)"/><path class="c" d="M176.784,489.013l21.49-1.7-.32,17.245-18.715.207L98,505.671V495.254Z" transform="translate(-13.286 -61.332)"/><path class="b" d="M985.217,494.689v200.09H967.643L897.33,643.492V489.044l62.818-5.9L964,484.912l3.639,1.677Z" transform="translate(-121.649 -60.767)"/><rect class="c" width="17.574" height="209.867" transform="translate(845.994 424.145)"/><path class="c" d="M985.217,484.912v11.506l-17.574.2-70.313.778v-8.35l62.818-5.9L964,484.912l3.639,1.677v-1.677Z" transform="translate(-121.649 -60.767)"/><path class="b" d="M863.568,475.064v16.3L0,501V480.251l81.257-16.424,707.106-5.187Z" transform="translate(0 -57.445)"/><path class="c" d="M863.568,477.64v16.3L0,503.573V482.827Z" transform="translate(0 -60.021)"/><rect class="d" width="302.482" height="234.858" rx="22.82" transform="translate(315.95 173.27)"/><rect class="e" width="254.247" height="191.584" transform="translate(340.293 194.457)"/><circle class="f" cx="4.167" cy="4.167" r="4.167" transform="translate(326.202 286.078)"/><circle class="f" cx="6.872" cy="6.872" r="6.872" transform="translate(598.931 283.822)"/><path class="g" d="M662.394,375.857,629.882,356.1a4.443,4.443,0,0,0-6.6,3.873V398.4a4.443,4.443,0,0,0,6.6,3.873l32.511-18.654a4.452,4.452,0,0,0,0-7.763Zm24.446,3.328A45.815,45.815,0,1,0,641.025,425,45.815,45.815,0,0,0,686.84,379.185Zm-82.761,0a37.476,37.476,0,1,0,0-.009Z" transform="translate(-167.567 -84.869)"/><path class="h" d="M870.286,529.156a10.808,10.808,0,0,0-.977-3.043c.657-2.239,1.081-3.613,1.081-3.613a5.045,5.045,0,0,0-.1-.864A13.269,13.269,0,0,0,856.844,510.5c-5.187.1-15.024.441-25.933,1.668.622-4.365,1.366-9.587,2.144-14.963l1.426.156a6.835,6.835,0,0,1,1.02.052h.458a4.7,4.7,0,0,0,3.164-.968,1.867,1.867,0,0,0-.579-3.06,7.711,7.711,0,0,0,6.768-2.835,6.051,6.051,0,0,0,0-7.036c-1.824-2.593-5.688-4.322-5.9-7.374-.112-1.729,1.046-3.285,1.954-4.815a20.115,20.115,0,0,0-3.172-24.161,47.332,47.332,0,0,0-3.838-3.415c-1.9-6.985-3.89-13.226-4.478-13.425-.761-.251-2.066-1.893-3.311-3.3a15.9,15.9,0,0,0-.06-3.57c-.916-6.051-6.915-10.373-10.218-15.715s-3.9-11.886-3.052-18.006,2.982-12.042,4.72-18.015c1.3-4.435,2.377-9.146.925-13.546-1.029-3.138-3.268-5.852-5.576-8.4-5.541-6.129-11.929-11.869-19.813-15.56a39.374,39.374,0,0,0-17.539-3.752H775.9l-.951.052-.674.043-.674.069-.718.069h0c-.735.1-1.461.207-2.187.354a75.475,75.475,0,0,0-16.035-1.8h-.7a8.213,8.213,0,0,0-4.581,1.081c-1.919,1.34-2.161,3.743-2.74,5.835a16.191,16.191,0,0,1-6.224,8.644c-2.066,1.487-4.5,2.593-6.466,4.149s-3.51,3.89-2.982,6.189c.441,1.928,2.239,3.363,4.322,4.236-.251.311-.51.614-.752.934.406.164.864.311,1.236.432,2.593.769,5.385.864,8.013,1.565a17.559,17.559,0,0,1,2.126.717,30.36,30.36,0,0,0-3.553,14.28,30.765,30.765,0,0,0,16.1,26.988c0,.294,0,.579,0,.864.268,9.025-.415,20-5.031,21.862s-9.033,3.959-11.756,5.316l-.864.458c-.718-.328-1.435-.674-2.135-1.037,0,0-3.674-.432-3.034,2.369,0,0-11.108-1.729-17.2,3.017s-16.1,14.652-18.058,17.237-17.133,8.238-17.133,8.238,4.78-6.682,2.714-14.868c0,0-2.282-9.872-1.193-13.831s3.916-18.654,3.916-18.654.4-15.508-8.065-22.622-14.35-12.966-11.082-6.051a96.372,96.372,0,0,0,4.789,9.258s-20.236,4.806-13.053,12.31,9.137,7.512,9.137,7.512-2.394,18.525-2.835,21.974-4.322,29.728-4.322,29.728-.216,12.5,1.962,14.436a9.832,9.832,0,0,0,10.442,7.78s17.185-.432,21.974-2.369,21.317-12.284,23.063-11.635a.993.993,0,0,1,.337.225,2.45,2.45,0,0,1,.259.259c-1.729,3.829-5.826,16.83-4.08,23.219,0,0-1.521,18.093,7.616,23.91,0,0,13.269,22.406,8.264,34.465-.4.977-.752,1.876-1.081,2.749-7.6-6.3-19.19-12.1-36.894-15.309-1.807-.328-3.6-.726-5.385-1.158-5.031-1.219-18.871-2.334-25.458,19.545a96.263,96.263,0,0,1-5.844,14.8c-2.593,5.247-5.472,12.768-5.532,20.228-.147,10.46,5.256,20.824,24.861,24.628.216,7.78,1.107,17.047,3.769,23.711,5.437,13.572,14.142,35.546,14.142,35.546s10.442,22.406,11.1,31.448c.424,5.921,1.046,13.684.614,19.018a8.452,8.452,0,0,1-.086.951,22.932,22.932,0,0,1-2.922,2.654c-1.521.865-6.526,6.25-6.526,7.538a23.029,23.029,0,0,0,.328,3.682c-2.369,2.066-3.665,4.322-3.665,6.57,0,11.687,33.168,21.161,74.082,21.161s74.073-9.509,74.073-21.161c0-10.667-27.662-19.484-63.6-20.937,7.495-2.991,14.151-6.129,16.908-8.644a4.046,4.046,0,0,0,1.305-1.781l-6.959-16.156s-.545.121-1.349.354l-.484-.726c-3.095-4.711-9.051-14.1-9.051-16.649,0-.942-1.573-6.967-3.855-15.223V648.007c22.7,3.458,51.952-1.245,51.952-1.245l.13-.069h.57v-.311c3.933-2.178,23.608-13.7,29.443-28.984,1.729-4.46-.424-10.849-4.7-17.678,2.991-7.426,10.373-26.607,9.638-34.257,0-.406-.052-.864-.052-1.314a22.562,22.562,0,0,0,.086-2.351c.864-11.238,7.78-31.768,7.78-31.768S870.372,529.675,870.286,529.156Zm-146.953-49.93c1.573,2.766,3.259,6.3,3.924,7.737h0s-2.3-4.236-3.881-7.737Zm1.642,242.127-.164.061v-.864a51.317,51.317,0,0,1,.164-6.76,7.918,7.918,0,0,0-.743-3.509,82.984,82.984,0,0,1-5.3-20.859c-.864-7.538-1.582-15.759-1.132-17.85.674-3.207,1.227-27.5.389-39.47l13.381,3.008,15.56,31.725s10.01,15.491,13.113,27.714v12.24a29.908,29.908,0,0,1-4.677,10.148c-2.066,2.827-4.08,5.688-5.947,8.644-.57.916-1.2,1.859-1.833,2.74-.207,0-10.434.6-12.171,2.516-1.072,1.184-2.939,3.051-3.25,4.927l-.441.069c-2.005-5.973-6.907-14.479-6.907-14.479Z" transform="translate(-175.386 -84.308)"/><path class="c" d="M805.031,769.569l-3.458,11.238-14.7,12.75-21.611,6.207s-10.157-5.558-6.7-6.639a8.529,8.529,0,0,0,3.259-2.835c-1.21,4.409,8.411-1.271,8.411-1.271s24.852-17.721,27.446-19.666a19.544,19.544,0,0,1,5.532-2.533C804.3,768.506,805.031,769.569,805.031,769.569Z" transform="translate(-189.615 -143.63)"/><path class="i" d="M801.347,754.381l-3.458,11.238-14.7,12.75-21.611,6.207s-10.157-5.558-6.7-6.639a8.529,8.529,0,0,0,3.259-2.835,43.233,43.233,0,0,0,2.887-4.167c1.85-2.974,3.855-5.844,5.9-8.644a31.119,31.119,0,0,0,5.455-14.358c1.513-11.886-13.831-35.874-13.831-35.874L730.68,654.79l38.9,4.754s20.962,71.964,20.962,75.422c0,2.593,5.913,11.972,8.99,16.7C800.613,753.318,801.347,754.381,801.347,754.381Z" transform="translate(-185.932 -128.443)"/><ellipse class="b" cx="73.58" cy="21.222" rx="73.58" ry="21.222" transform="translate(520.259 650.03)"/><path class="g" d="M810.327,783.458a4.15,4.15,0,0,1-1.3,1.789c-5.342,4.9-25.319,12.188-37.663,16.148a87.38,87.38,0,0,1-9.88,2.809c-3.026.216-9.293-1.729-13.615-4.383s-.432-6.423,1.314-8.368,12.1-2.524,12.1-2.524c-4.97,8.273,7.339,1.011,7.339,1.011s24.852-17.721,27.446-19.666,7.348-3.026,7.348-3.026Z" transform="translate(-187.996 -143.689)"/><path class="j" d="M810.327,783.458a4.15,4.15,0,0,1-1.3,1.789c-5.342,4.9-25.319,12.188-37.663,16.148a87.38,87.38,0,0,1-9.88,2.809c-3.026.216-9.293-1.729-13.615-4.383s-.432-6.423,1.314-8.368,12.1-2.524,12.1-2.524c-4.97,8.273,7.339,1.011,7.339,1.011s24.852-17.721,27.446-19.666,7.348-3.026,7.348-3.026Z" transform="translate(-187.996 -143.689)"/><path class="c" d="M813.023,788.09c-5.342,4.9-25.319,12.188-37.663,16.148C786.546,794.763,805.3,789.81,813.023,788.09Z" transform="translate(-191.989 -146.514)"/><ellipse class="c" cx="14.721" cy="4.244" rx="14.721" ry="4.244" transform="translate(579.118 660.17)"/><rect class="b" width="15.128" height="111.944" transform="translate(585.653 552.47)"/><path class="c" d="M793.128,690.558v12.966c-3.026-.934-9.932-4.867-15.128-7.961V685h3.155Z" transform="translate(-192.347 -132.538)"/><path class="d" d="M754.27,624.9s49.947-12.854,62.378-22.475,61.245,35.649,54.8,52.73S841.517,684.6,841.517,684.6s-64.927,10.563-75.984-11.471S754.27,624.9,754.27,624.9Z" transform="translate(-189.13 -121.163)"/><path class="c" d="M754.27,624.9s49.947-12.854,62.378-22.475,61.245,35.649,54.8,52.73S841.517,684.6,841.517,684.6s-64.927,10.563-75.984-11.471S754.27,624.9,754.27,624.9Z" transform="translate(-189.13 -121.163)"/><path class="d" d="M749.27,618.9s49.947-12.854,62.378-22.475,61.245,35.649,54.8,52.73S836.517,678.6,836.517,678.6s-64.928,10.563-75.984-11.471S749.27,618.9,749.27,618.9Z" transform="translate(-188.452 -120.35)"/><path class="i" d="M691.169,473.513l-5.4-1.962s4.754-6.7,2.706-14.911c0,0-2.273-9.906-1.193-13.917s3.89-18.715,3.89-18.715.4-15.56-8.013-22.691-14.246-12.966-11-6.051a96.291,96.291,0,0,0,4.754,9.293s-20.1,4.815-12.967,12.353,9.077,7.529,9.077,7.529-2.377,18.585-2.809,22.043-4.322,29.823-4.322,29.823-.216,12.534,1.945,14.479a9.777,9.777,0,0,0,10.373,7.78C679.742,498.538,698.085,478.267,691.169,473.513Z" transform="translate(-176.677 -92.84)"/><path class="i" d="M834,434.794v12.1l-12.534,4.089L800.119,466.7l-5.662,4.167L769.172,460.71,753.18,443.854s.778-.424,2.126-1.124l.864-.458c2.706-1.357,6.967-3.458,11.679-5.334s5.264-12.871,5-21.931v-.864c-.216-6.354-.864-11.549-.864-11.549s2.636-.5,6.475-1.072c10.641-1.582,30.5-3.717,28.751,2.8a15.014,15.014,0,0,0,0,6.734c.052.242.1.493.164.735,1.8,7.858,7.365,16.087,7.365,16.087l17.289,6.224.484.173Z" transform="translate(-188.982 -93.885)"/><path class="i" d="M845.019,443.916v-3.674a12.1,12.1,0,0,1,4.106,0c1.513.432,4.383,4.97,5.679,5.4s9.232,30.039,8.368,32.632-9.033,61.141-9.033,61.141l-16.467,18.153-3.242-49.921,10.589-29.607Z" transform="translate(-199.997 -99.333)"/><path class="i" d="M745.843,601.77s-15.05,3.242-13.139,8,10.33,4.971,10.33,4.971Z" transform="translate(-186.184 -121.255)"/><path class="i" d="M759.776,485.287l-11.454,24.68-13.615,9.941-2.377-15.361s-4.6-10.157-6.578-11.877a.993.993,0,0,0-.337-.225c-1.729-.648-18.153,9.725-22.908,11.67s-21.827,2.377-21.827,2.377l7.564-27.014s15.128-5.619,17.073-8.212,11.886-12.534,17.937-17.289,17.09-3.026,17.09-3.026l.173.069,2.835,1.228,8.212,20.1Z" transform="translate(-179.154 -100.767)"/><path class="i" d="M730.061,754a51.589,51.589,0,0,0-.164,6.777c.06,2.412.164,4.46.164,4.46l-4.97,10.373s-17.073,5.619-14.263,3.242c.977-.821,1.478-2.956,1.729-5.783.424-5.342-.19-13.131-.614-19.069-.648-9.077-11.022-31.552-11.022-31.552s-8.644-22.043-14.047-35.658-3.458-38.251-3.458-38.251.864-18.585,4.754-24.2,19.018-7.564,19.018-7.564l7.1,23.538s5.835,22.043,8,25.285,1.513,41.925.648,46.031c-.441,2.1.3,10.373,1.132,17.911a84.119,84.119,0,0,0,5.256,20.919,7.987,7.987,0,0,1,.743,3.544Z" transform="translate(-179.478 -123.289)"/><path class="c" d="M734.365,787.82l-4.97,10.373s-17.073,5.619-14.263,3.242c.977-.821,1.478-2.956,1.729-5.783.614-.614,1.271-1.288,1.945-1.98a43.643,43.643,0,0,1,15.43-10.313h0C734.261,785.772,734.365,787.82,734.365,787.82Z" transform="translate(-183.782 -145.873)"/><path class="g" d="M740.993,803.383a.515.515,0,0,1,0,.121c-.864,4.106-15.128,9.725-15.128,9.725s-9.077,1.513-14.263,2.809a3.587,3.587,0,0,1-1.219.112c-4-.3-4.184-8-4.184-9.189s4.97-6.7,6.483-7.564a46.352,46.352,0,0,0,4.806-4.607,44.606,44.606,0,0,1,15.75-10.52h0S741.685,799.121,740.993,803.383Z" transform="translate(-182.613 -145.996)"/><path class="j" d="M740.993,803.38a.515.515,0,0,1,0,.121c-.864,4.106-15.128,9.725-15.128,9.725s-9.077,1.513-14.263,2.809a3.587,3.587,0,0,1-1.219.112c-4-.3-4.184-8-4.184-9.189s4.97-6.7,6.483-7.564a45.831,45.831,0,0,0,4.875-4.677A43.712,43.712,0,0,1,733,784.345l.242-.095S741.685,799.118,740.993,803.38Z" transform="translate(-182.613 -145.993)"/><path class="c" d="M741.65,806.357a.515.515,0,0,1,0,.121c-.864,4.106-15.128,9.725-15.128,9.725s-9.077,1.513-14.263,2.809a3.587,3.587,0,0,1-1.219.112c4.7-3.224,16.1-10.961,17.643-11.134S737.8,805.64,741.65,806.357Z" transform="translate(-183.269 -148.971)"/><path class="c" d="M810.359,411.792c-5.342,4.4-10.252,3.769-17.712,3.769-5.394,0-12.4,1.893-16.822-.536-.182-6.751-.864-12.431-.864-12.431s37.6-7.132,35.226,1.729a15.714,15.714,0,0,0,.173,7.469Z" transform="translate(-191.935 -93.885)"/><path class="i" d="M819.238,380.214a30.9,30.9,0,0,1-30.9,30.9,21.531,21.531,0,0,1-2.369-.086h0a30.9,30.9,0,1,1,33.281-30.817Z" transform="translate(-189.56 -87.03)"/><path class="c" d="M758.632,472.423l8.212,12.966-11.454,24.68-13.615,9.941-2.377-15.4s-4.6-10.157-6.578-11.877c.57-1.392.959-2.031.959-1.521,0,2.161,5.316,11.886,5.316,11.886,16.424-5.619,11.324-27.446,11.324-27.446s-2.04-19.45-2.835-24.567l2.835,1.228Z" transform="translate(-186.222 -100.826)"/><path class="c" d="M834,440.189v12.1l-12.534,4.089-21.352,15.715-5.662,4.167L769.172,466.1,753.18,449.248s.778-.424,2.126-1.124l.864-.458c11.125,5.057,23.167,6.915,31.768,7.581a95.947,95.947,0,0,0,11.895.268c32.563-5.187,33.531-13.053,32.719-15.845Z" transform="translate(-188.982 -99.28)"/><path class="g" d="M834.245,636.153a242.291,242.291,0,0,1-25.069,10.589c-14.911,5.4-47.76-1.729-51.866-2.809s-35.658-13.615-47.76-18.369-15.128-.864-17.937-1.3-4.754-5.835-5.187-7.348,7.78-14.7,12.318-21.395,18.153-5.4,20.1-5.835,15.56,0,15.56,0-.864-4.322,4.106-16.424-8.212-34.577-8.212-34.577c-9.077-5.835-7.564-23.988-7.564-23.988-2.161-8,4.754-26.365,4.754-24.2s5.316,11.886,5.316,11.886c16.424-5.619,11.324-27.446,11.324-27.446s-2.377-22.691-3.008-25.5,3.008-2.377,3.008-2.377q1.055.545,2.126,1.037c11.376,5.359,23.824,7.313,32.658,7.987a95.954,95.954,0,0,0,11.895.268c39.479-6.371,32.485-16.528,32.226-16.891l1.919.683c14.263,10.373,9.941,44.734,9.941,44.734l-5.342,25.648-3.968,19.1s14.047,85.147,15.344,89.469S834.245,636.153,834.245,636.153Z" transform="translate(-179.93 -99.251)"/><path class="c" d="M734.73,622c-.864.648-10.589,20.746-3.458,26.365S734.73,622,734.73,622Z" transform="translate(-185.66 -123.998)"/><path class="c" d="M743.68,625.27c.216.648,20.314,32.632,31.336,35.226Z" transform="translate(-187.694 -124.441)"/><path class="c" d="M799.186,332.461l-3.216.683a21.675,21.675,0,0,1,2.714-.8Z" transform="translate(-194.783 -84.729)"/><path class="c" d="M841.165,472.657l-6.051,25.63a31.309,31.309,0,0,1-8.4-5.627c-1.928-1.833-3.656-3.933-6.137-5.135-3.19-1.547-7.036-1.34-10.659-1.47a51.278,51.278,0,0,1-13.33-2.282,9.407,9.407,0,0,1-3.458-1.677c-2.057-1.815-1.919-4.746-1.729-7.3a112.013,112.013,0,0,0,.13-14.946c-.052-.934-.121-1.867-.2-2.8-.346-4.175-1.47-9.016-5.74-10.805-2.2-.864-4.815-.8-6.915-1.841a5.717,5.717,0,0,1-.864-.536c-3.112-2.178-3.4-6.544-3.276-10.218q.277-7.572.527-15.154a44.044,44.044,0,0,0-.164-7.477h0a16.6,16.6,0,0,0-1.349-4.772c-1.876-4.011-5.783-7.356-6.483-11.592a4.682,4.682,0,0,1-.078-.6c-.363-3.786,2.023-7.313,2.861-11.039,1.677-7.495-3.959-15.707-12.249-17.859-2.593-.674-5.377-.8-7.961-1.573a12.789,12.789,0,0,1-1.219-.432c6.259-8.35,16.986-13.831,29.166-13.831,19.3,0,34.958,13.831,34.958,30.9,0,9.682-5.04,18.317-12.915,23.988.052.242.112.493.182.735,2.031,7.858,8.333,16.087,8.333,16.087l19.571,6.224,2.178.692C846.058,438.313,841.165,472.657,841.165,472.657Z" transform="translate(-188.337 -87.031)"/><path class="c" d="M867.913,520.707a2.936,2.936,0,0,1-.553-.078A1.15,1.15,0,0,1,867.913,520.707Z" transform="translate(-204.461 -110.254)"/><path class="d" d="M784.4,331.188A74.339,74.339,0,0,0,767.9,329.26c-1.807,0-3.743.1-5.187,1.089-1.91,1.34-2.152,3.76-2.723,5.852a16.234,16.234,0,0,1-6.181,8.644c-2.049,1.5-4.46,2.593-6.423,4.167s-3.458,3.907-2.965,6.207,3.077,4.072,5.671,4.806,5.351.864,7.961,1.573c8.29,2.152,13.917,10.373,12.24,17.851-.864,3.726-3.224,7.253-2.861,11.039.424,4.521,4.6,8,6.561,12.2,1.789,3.821,1.668,8.108,1.53,12.24L775,430.087c-.138,3.994.207,8.8,4.149,10.754,2.109,1.037,4.737.925,6.915,1.841,4.27,1.781,5.394,6.63,5.74,10.8a111.6,111.6,0,0,1,.069,17.747c-.2,2.593-.337,5.489,1.729,7.3a9.266,9.266,0,0,0,3.458,1.677,51.278,51.278,0,0,0,13.33,2.282c3.631.138,7.469-.069,10.658,1.469,2.481,1.2,4.21,3.311,6.137,5.135a33.921,33.921,0,0,0,20.038,8.774c1.6.138,3.415.1,4.53-.925s.458-3.25-1.132-3.121a7.685,7.685,0,0,0,7.279-2.783,6.137,6.137,0,0,0,0-7.062c-1.807-2.593-5.645-4.322-5.852-7.4-.112-1.729,1.037-3.293,1.936-4.832a20.323,20.323,0,0,0-3.146-24.2c-4.054-4.192-10.131-7.374-11.549-12.75-.942-3.6.484-7.374-.061-11.03-.864-6.051-6.855-10.373-10.148-15.767s-3.873-11.921-3.034-18.058,2.965-12.1,4.694-18.067c1.288-4.452,2.351-9.18.916-13.6-1.029-3.138-3.242-5.861-5.541-8.428-5.506-6.146-11.843-11.9-19.674-15.56s-17.375-5.074-25.691-2.369" transform="translate(-187.782 -84.312)"/><path class="c" d="M784.4,331.188A74.339,74.339,0,0,0,767.9,329.26c-1.807,0-3.743.1-5.187,1.089-1.91,1.34-2.152,3.76-2.723,5.852a16.234,16.234,0,0,1-6.181,8.644c-2.049,1.5-4.46,2.593-6.423,4.167s-3.458,3.907-2.965,6.207,3.077,4.072,5.671,4.806,5.351.864,7.961,1.573c8.29,2.152,13.917,10.373,12.24,17.851-.864,3.726-3.224,7.253-2.861,11.039.424,4.521,4.6,8,6.561,12.2,1.789,3.821,1.668,8.108,1.53,12.24L775,430.087c-.138,3.994.207,8.8,4.149,10.754,2.109,1.037,4.737.925,6.915,1.841,4.27,1.781,5.394,6.63,5.74,10.8a111.6,111.6,0,0,1,.069,17.747c-.2,2.593-.337,5.489,1.729,7.3a9.266,9.266,0,0,0,3.458,1.677,51.278,51.278,0,0,0,13.33,2.282c3.631.138,7.469-.069,10.658,1.469,2.481,1.2,4.21,3.311,6.137,5.135a33.921,33.921,0,0,0,20.038,8.774c1.6.138,3.415.1,4.53-.925s.458-3.25-1.132-3.121a7.685,7.685,0,0,0,7.279-2.783,6.137,6.137,0,0,0,0-7.062c-1.807-2.593-5.645-4.322-5.852-7.4-.112-1.729,1.037-3.293,1.936-4.832a20.323,20.323,0,0,0-3.146-24.2c-4.054-4.192-10.131-7.374-11.549-12.75-.942-3.6.484-7.374-.061-11.03-.864-6.051-6.855-10.373-10.148-15.767s-3.873-11.921-3.034-18.058,2.965-12.1,4.694-18.067c1.288-4.452,2.351-9.18.916-13.6-1.029-3.138-3.242-5.861-5.541-8.428-5.506-6.146-11.843-11.9-19.674-15.56s-17.375-5.074-25.691-2.369" transform="translate(-187.782 -84.312)"/><path class="c" d="M737.18,553.1s7.348,2.809,15.128-4.97S737.18,553.1,737.18,553.1Z" transform="translate(-186.813 -113.642)"/><g class="k" transform="translate(556.418 245)"><path d="M794.169,331.245a30.744,30.744,0,0,1,4.322-.545,32.789,32.789,0,0,0-6.051.19Z" transform="translate(-750.723 -329.499)"/><path d="M830.969,489.1c-1.936-1.824-3.656-3.933-6.146-5.135-3.181-1.539-7.028-1.331-10.659-1.47a51,51,0,0,1-13.33-2.282,9.266,9.266,0,0,1-3.458-1.677c-2.057-1.815-1.91-4.737-1.729-7.3a111.616,111.616,0,0,0-.069-17.747c-.354-4.167-1.47-9.016-5.749-10.8-2.187-.916-4.806-.8-6.915-1.841-3.942-1.954-4.322-6.76-4.158-10.754q.268-7.581.527-15.154c.147-4.141.259-8.428-1.53-12.249-1.962-4.193-6.137-7.668-6.561-12.2-.354-3.778,2.031-7.313,2.87-11.039,1.677-7.495-3.959-15.7-12.249-17.851-2.593-.674-5.377-.813-7.961-1.573s-5.091-2.4-5.627-4.754.994-4.633,2.956-6.215,4.374-2.671,6.431-4.167a16.173,16.173,0,0,0,6.172-8.644c.579-2.092.864-4.5,2.723-5.852a6.915,6.915,0,0,1,3.544-1.037c-.769,0-1.539-.043-2.3-.043-1.807,0-3.743.1-5.187,1.081-1.91,1.349-2.152,3.76-2.723,5.852a16.234,16.234,0,0,1-6.181,8.644c-2.049,1.5-4.46,2.593-6.423,4.167s-3.458,3.907-2.965,6.215,3.051,3.985,5.636,4.754,5.351.864,7.961,1.573c8.29,2.152,13.917,10.373,12.24,17.851-.864,3.726-3.224,7.261-2.861,11.039.424,4.53,4.6,8,6.561,12.2,1.789,3.821,1.677,8.108,1.53,12.249q-.268,7.572-.527,15.154c-.138,3.994.207,8.8,4.149,10.754,2.109,1.037,4.737.925,6.915,1.841,4.27,1.781,5.394,6.63,5.74,10.8a111.6,111.6,0,0,1,.069,17.747c-.2,2.593-.337,5.489,1.729,7.3a9.267,9.267,0,0,0,3.458,1.677,50.926,50.926,0,0,0,13.33,2.282c3.631.138,7.469-.069,10.659,1.47,2.481,1.2,4.21,3.311,6.146,5.135a33.869,33.869,0,0,0,20.029,8.774,9.257,9.257,0,0,0,2.9-.112,33.808,33.808,0,0,1-18.966-8.662Z" transform="translate(-744.18 -329.32)"/></g><path class="c" d="M688.488,484s-6.915,6.345-5.9,8.938S688.488,484,688.488,484Z" transform="translate(-179.398 -105.289)"/><path class="d" d="M691.112,578.264c-4.988-1.219-18.741-2.343-25.285,19.605a97.1,97.1,0,0,1-5.8,14.842C653.751,625.6,645.643,652.1,681.3,657.939l85.579,19.45s45.815,5.619,48.84,3.458,2.593-6.915,2.593-6.915-50.569,0-60.51-15.56-10.373-36.738-10.373-36.738,1.245-32.7-51-42.2C694.7,579.1,692.884,578.7,691.112,578.264Z" transform="translate(-175.608 -117.994)"/><path class="c" d="M691.112,578.434c-4.988-1.219-18.741-2.343-25.285,19.614a97.1,97.1,0,0,1-5.8,14.842c-6.276,12.88-14.384,39.384,21.274,45.218l85.579,19.45s45.815,5.619,48.84,3.458,2.593-6.915,2.593-6.915-50.569,0-60.51-15.56S747.43,621.8,747.43,621.8s1.245-32.7-51-42.2C694.7,579.273,692.884,578.849,691.112,578.434Z" transform="translate(-175.608 -118.017)"/><path class="d" d="M885.652,550.728A13.217,13.217,0,0,0,872.3,539.56c-12.31.225-50.2,1.867-67.8,13.364,0,0-13.4,8.644-17.289,8.644s-56.62,44.951,21.611,85.147c0,0,41.925,11.929,58.349-16.078,0,0,11.67-30.082,10.805-40.5s7.78-38.51,7.78-38.51S885.738,551.29,885.652,550.728Z" transform="translate(-190.752 -112.821)"/><path class="c" d="M885.652,559.622c-.985-6.051-6.743-10.425-13.355-10.313-12.31.207-50.2,1.729-67.8,12.335,0,0-13.4,7.979-17.289,7.979s-56.62,41.493,21.611,78.6c0,0,41.925,11.013,58.349-14.842,0,0,11.67-27.774,10.805-37.387s7.78-35.545,7.78-35.545S885.738,560.141,885.652,559.622Z" transform="translate(-190.752 -114.143)"/><rect class="b" width="13.831" height="29.451" transform="translate(639.248 533.885)"/><ellipse class="c" cx="38.934" cy="2.498" rx="38.934" ry="2.498" transform="translate(108.227 409.13)"/><path class="g" d="M300.081,409.61a14.849,14.849,0,0,0-1.971,3.708c-.121.328-.242.692-.363,1.046a3.19,3.19,0,0,0-.683-.233,9.8,9.8,0,0,0-3.086-.268c0-.4.052-.864.061-1.262.13-4.556-.406-10.909-4.754-8.221-4.167,2.593-1.193,6.915,1.5,9.69l.692.674c-2.455,1.729-2.922,5.818-3.328,10.062s-4.011,8.9-6.405,11.532c-.242.268-.458.51-.674.735a8.739,8.739,0,0,0-6.959-1.789c-.1-.372-.207-.761-.32-1.176-1.936-6.985-5.956-19.1-11.082-21.749l.674-.864c2.178-2.853,4.633-7.08,1.011-8.169s-3.95,3.674-3.752,7.235c0,.449.069.864.1,1.262a5.334,5.334,0,0,0-3.786,1.85l-.562-.657c-2.939-3.458-8.325-8.964-9.958-4.806-1.521,3.873,3.224,8.9,6.561,11.808l.207.182c-2.239,9.1,7.512,16.537,12.8,19.752l.683.415c-7.261,8.558-11.748,24.593-11.748,24.593l20.331,3.631s13.485-11.627,11.756-22.553h.138c13.477-2.7,16.537-17.064,14.436-25.6l.242-.1a15.335,15.335,0,0,0,6.241-4.72C311.854,410.379,303.936,404.466,300.081,409.61Z" transform="translate(-120.244 -94.331)"/><path class="c" d="M300.081,409.61a14.849,14.849,0,0,0-1.971,3.708c-.121.328-.242.692-.363,1.046a3.19,3.19,0,0,0-.683-.233,9.8,9.8,0,0,0-3.086-.268c0-.4.052-.864.061-1.262.13-4.556-.406-10.909-4.754-8.221-4.167,2.593-1.193,6.915,1.5,9.69l.692.674c-2.455,1.729-2.922,5.818-3.328,10.062s-4.011,8.9-6.405,11.532c-.242.268-.458.51-.674.735a8.739,8.739,0,0,0-6.959-1.789c-.1-.372-.207-.761-.32-1.176-1.936-6.985-5.956-19.1-11.082-21.749l.674-.864c2.178-2.853,4.633-7.08,1.011-8.169s-3.95,3.674-3.752,7.235c0,.449.069.864.1,1.262a5.334,5.334,0,0,0-3.786,1.85l-.562-.657c-2.939-3.458-8.325-8.964-9.958-4.806-1.521,3.873,3.224,8.9,6.561,11.808l.207.182c-2.239,9.1,7.512,16.537,12.8,19.752l.683.415c-7.261,8.558-11.748,24.593-11.748,24.593l20.331,3.631s13.485-11.627,11.756-22.553h.138c13.477-2.7,16.537-17.064,14.436-25.6l.242-.1a15.335,15.335,0,0,0,6.241-4.72C311.854,410.379,303.936,404.466,300.081,409.61Z" transform="translate(-120.244 -94.331)"/><path class="g" d="M259.807,416.029l-2.351,6.959s-1.323-.934-2.991-2.4c-3.337-2.913-8.082-7.935-6.561-11.808,1.634-4.158,7.019,1.331,9.958,4.806C259.021,414.957,259.807,416.029,259.807,416.029Z" transform="translate(-120.444 -94.889)"/><path class="g" d="M267.084,411.505a33.625,33.625,0,0,1-2.317,2.723,36.494,36.494,0,0,1-.424-3.657c-.2-3.561.181-8.29,3.752-7.235S269.227,408.653,267.084,411.505Z" transform="translate(-122.706 -94.334)"/><path class="g" d="M301.93,412.69c-.069,2.291-.294,4.115-.294,4.115a29.39,29.39,0,0,1-2.965-2.645c-2.688-2.792-5.662-7.1-1.5-9.69C301.515,401.781,302.051,408.135,301.93,412.69Z" transform="translate(-126.882 -94.421)"/><path class="g" d="M317.491,416.3a15.335,15.335,0,0,1-6.258,4.711,17.449,17.449,0,0,1-2.092.752l-2.8-3.933a28.576,28.576,0,0,1,1.158-3.821,14.852,14.852,0,0,1,1.971-3.708C313.359,405.166,321.26,411.078,317.491,416.3Z" transform="translate(-128.405 -95.03)"/><path class="c" d="M258.911,414.57c1.184,1.374,1.971,2.446,1.971,2.446l-2.351,6.959s-1.323-.934-2.991-2.4a13.615,13.615,0,0,1,2.68-6.112A8.109,8.109,0,0,1,258.911,414.57Z" transform="translate(-121.518 -95.877)"/><path class="c" d="M267.09,412.664a33.618,33.618,0,0,1-2.317,2.723,36.494,36.494,0,0,1-.424-3.657,4.72,4.72,0,0,1,2.74.934Z" transform="translate(-122.713 -95.492)"/><path class="g" d="M277.52,440.485l-5.913,2.593s-1.288-.622-3.147-1.781c-6.215-3.829-18.706-13.451-10.33-24.792s15.361,9.007,18.11,18.948C277.114,438.436,277.52,440.485,277.52,440.485Z" transform="translate(-121.49 -95.686)"/><path class="c" d="M299.22,415.55a4.815,4.815,0,0,1,3.259-1.47c-.069,2.291-.294,4.115-.294,4.115a29.386,29.386,0,0,1-2.965-2.645Z" transform="translate(-127.44 -95.81)"/><path class="c" d="M311.233,421.9a17.453,17.453,0,0,1-2.092.752l-2.8-3.933A28.576,28.576,0,0,1,307.5,414.9C309.322,415.972,310.654,418.591,311.233,421.9Z" transform="translate(-128.405 -95.922)"/><path class="g" d="M293.136,447.681l-.994.173c-19.821,3.017-6.535-7.676-6.535-7.676s.864-.821,2.1-2.17c2.394-2.637,5.991-7.261,6.405-11.532.622-6.423,1.34-12.448,8.921-10.676C310.511,417.538,311.937,443.921,293.136,447.681Z" transform="translate(-125.004 -96.001)"/><rect class="d" width="37.871" height="9.958" transform="translate(129.924 401.022)"/><rect class="d" width="49.48" height="34.75" transform="translate(123.908 368.657)"/><rect class="c" width="37.871" height="9.958" transform="translate(129.561 401.022)"/><rect class="c" width="49.48" height="34.75" transform="translate(123.752 368.666)"/><rect class="d" width="37.871" height="9.958" transform="translate(132.414 401.022)"/><path class="c" d="M278.34,439c.864,2.974,1.279,5.022,1.279,5.022l-5.913,2.593s-1.288-.622-3.147-1.781C272.877,441.87,275.487,439.648,278.34,439Z" transform="translate(-123.555 -99.189)"/><path class="c" d="M293.136,451.213l-.994.173c-19.821,3.017-6.535-7.676-6.535-7.676s.864-.821,2.1-2.17C291.407,444.531,292.971,447.842,293.136,451.213Z" transform="translate(-125.004 -99.533)"/><path class="g" d="M257.76,469.97s11.1-39.764,26.668-27.489-6.336,31.12-6.336,31.12Z" transform="translate(-121.819 -99.342)"/><circle class="c" cx="1.245" cy="1.245" r="1.245" transform="translate(140.297 325.807)"/><circle class="c" cx="1.245" cy="1.245" r="1.245" transform="translate(140.194 331.625)"/><circle class="c" cx="1.245" cy="1.245" r="1.245" transform="translate(176.301 326.949)"/><circle class="c" cx="1.245" cy="1.245" r="1.245" transform="translate(147.247 356.728)"/><circle class="c" cx="1.245" cy="1.245" r="1.245" transform="translate(173.708 336.604)"/><circle class="c" cx="1.245" cy="1.245" r="1.245" transform="translate(160.845 349.467)"/><circle class="c" cx="1.245" cy="1.245" r="1.245" transform="translate(144.55 328.297)"/><circle class="c" cx="1.245" cy="1.245" r="1.245" transform="translate(172.878 330.691)"/><circle class="c" cx="1.245" cy="1.245" r="1.245" transform="translate(168.625 340.339)"/><circle class="c" cx="1.245" cy="1.245" r="1.245" transform="translate(155.546 355.795)"/><circle class="c" cx="1.245" cy="1.245" r="1.245" transform="translate(152.849 349.674)"/><circle class="c" cx="1.245" cy="1.245" r="1.245" transform="translate(146.418 335.878)"/><rect class="c" width="37.871" height="3.639" transform="translate(132.414 401.022)"/><rect class="d" width="49.48" height="34.75" transform="translate(126.397 368.657)"/><circle class="c" cx="1.245" cy="1.245" r="1.245" transform="translate(157.206 361.396)"/><circle class="c" cx="1.245" cy="1.245" r="1.245" transform="translate(149.737 362.952)"/><path class="g" d="M409.73,626s6.163,8.065-2.844,20.236-16.424,22.475-13.451,30.048c0,0,13.606-22.614,24.68-22.925S421.91,639.606,409.73,626Z" transform="translate(-140.122 -124.54)"/><path class="c" d="M409.783,626a9.932,9.932,0,0,1,1.262,2.524c10.8,12.69,16.554,24.533,6.172,24.835-9.673.3-21.274,17.591-24.057,21.913.1.337.207.674.328.994,0,0,13.606-22.614,24.68-22.925S421.963,639.606,409.783,626Z" transform="translate(-140.175 -124.54)"/><path class="l" d="M425.428,637.615c0,2.835-.32,5.135-.709,5.135s-.709-2.3-.709-5.135.4-1.5.787-1.5S425.428,634.771,425.428,637.615Z" transform="translate(-144.357 -125.868)"/><path class="l" d="M429.437,641.514c-2.49,1.357-4.659,2.178-4.849,1.833s1.677-1.729,4.175-3.086,1.5-.372,1.729,0S431.936,640.157,429.437,641.514Z" transform="translate(-144.434 -126.379)"/><path class="g" d="M372.529,626s-6.163,8.065,2.844,20.236,16.424,22.475,13.442,30.048c0,0-13.6-22.614-24.671-22.925S360.349,639.606,372.529,626Z" transform="translate(-135.501 -124.54)"/><path class="c" d="M372.529,626a9.935,9.935,0,0,0-1.262,2.524c-10.8,12.69-16.554,24.533-6.172,24.835,9.673.3,21.274,17.591,24.057,21.913a9.585,9.585,0,0,1-.337.994s-13.6-22.6-24.671-22.9S360.349,639.606,372.529,626Z" transform="translate(-135.501 -124.54)"/><path class="l" d="M361.44,637.615c0,2.835.32,5.135.709,5.135s.709-2.3.709-5.135-.4-1.5-.787-1.5S361.44,634.771,361.44,637.615Z" transform="translate(-135.875 -125.868)"/><path class="l" d="M356.647,641.514c2.49,1.357,4.659,2.178,4.849,1.833s-1.677-1.729-4.175-3.086-1.5-.372-1.729,0S354.149,640.157,356.647,641.514Z" transform="translate(-135.015 -126.379)"/><ellipse class="a" cx="64.487" cy="9.898" rx="64.487" ry="9.898" transform="translate(188.827 593.661)"/><path class="m" d="M421.528,671.019l-.311,2.515-.432,3.561-.173,1.478-.441,3.561-.182,1.487-.432,3.553-4.893,40.455c-.441,3.613-6.345,6.423-13.459,6.423H375.514c-7.123,0-12.966-2.809-13.451-6.423l-4.945-40.455-.432-3.553-.182-1.487-.441-3.561-.173-1.478-.432-3.561-.311-2.515c-.251-2.04,2.939-3.769,6.976-3.769H414.56C418.58,667.25,421.778,668.979,421.528,671.019Z" transform="translate(-135.02 -130.132)"/><path class="n" d="M320.767,623.15l-.432,3.553H255.442l-.432-3.553Z" transform="translate(-34.571 -79.748)"/><path class="n" d="M320.257,628.98l-.432,3.561H256.151l-.441-3.561Z" transform="translate(-34.666 -80.538)"/><path class="n" d="M319.732,634.81l-.432,3.561H256.862l-.432-3.561Z" transform="translate(-34.764 -81.328)"/></g></svg>